<svg width="337" height="53" fill="none" xmlns="http://www.w3.org/2000/svg"><path d="M25.8 39.032V14.264h-9.48c-.192 3.408-.456 6.432-.792 9.072-.32 2.64-.696 4.96-1.128 6.96-.432 2-.912 3.712-1.44 5.136-.528 1.424-1.096 2.624-1.704 3.6H25.8zm11.88 0v11.376c0 .56-.192 1.008-.576 1.344-.368.336-.856.504-1.464.504h-3.888V44H6.264v6.408c0 .56-.192 1.008-.576 1.344-.368.336-.856.504-1.464.504H.336V39.032h3.792c.448-.24.888-.624 1.32-1.152.448-.528.88-1.272 1.296-2.232.416-.96.808-2.176 1.176-3.648.384-1.472.728-3.264 1.032-5.376.304-2.128.56-4.616.768-7.464.224-2.848.392-6.136.504-9.864H32.28v29.736h5.4zm37.108-12.384c0 2.544-.424 4.904-1.272 7.08-.832 2.16-2.016 4.032-3.552 5.616-1.536 1.584-3.384 2.824-5.544 3.72-2.16.88-4.56 1.32-7.2 1.32-2.624 0-5.016-.44-7.176-1.32-2.16-.896-4.016-2.136-5.568-3.72-1.536-1.584-2.728-3.456-3.576-5.616-.848-2.176-1.272-4.536-1.272-7.08 0-2.544.424-4.896 1.272-7.056.848-2.176 2.04-4.056 3.576-5.64 1.552-1.584 3.408-2.816 5.568-3.696 2.16-.896 4.552-1.344 7.176-1.344 1.76 0 3.416.208 4.968.624 1.552.4 2.976.976 4.272 1.728a15.093 15.093 0 013.48 2.712 16.018 16.018 0 012.64 3.552 17.128 17.128 0 011.632 4.272c.384 1.536.576 3.152.576 4.848zm-6.6 0c0-1.904-.256-3.608-.768-5.112-.512-1.52-1.24-2.808-2.184-3.864a9.33 9.33 0 00-3.456-2.424c-1.344-.56-2.864-.84-4.56-.84-1.696 0-3.224.28-4.584.84a9.597 9.597 0 00-3.456 2.424c-.944 1.056-1.672 2.344-2.184 3.864-.512 1.504-.768 3.208-.768 5.112s.256 3.616.768 5.136c.512 1.504 1.24 2.784 2.184 3.84a9.737 9.737 0 003.456 2.4c1.36.56 2.888.84 4.584.84 1.696 0 3.216-.28 4.56-.84 1.36-.56 2.512-1.36 3.456-2.4.944-1.056 1.672-2.336 2.184-3.84.512-1.52.768-3.232.768-5.136zM107.598 44h-6.504V14.264h-9.48c-.224 4.352-.544 8.12-.96 11.304-.4 3.168-.888 5.872-1.464 8.112-.56 2.224-1.208 4.032-1.944 5.424-.72 1.392-1.512 2.48-2.376 3.264-.864.768-1.792 1.296-2.784 1.584-.992.272-2.032.408-3.12.408-1.152 0-1.992-.104-2.52-.312-.528-.208-.792-.512-.792-.912v-4.032h1.848c.416 0 .832-.048 1.248-.144a3.413 3.413 0 001.272-.6c.432-.32.848-.776 1.248-1.368.416-.592.808-1.384 1.176-2.376.384-1.008.736-2.24 1.056-3.696.336-1.456.632-3.208.888-5.256.272-2.048.504-4.416.696-7.104.208-2.704.36-5.792.456-9.264h22.056V44zm29.143-29.736h-14.928V44h-6.48V9.296h21.408v4.968zm36.297 12.384c0 2.544-.424 4.904-1.272 7.08-.832 2.16-2.016 4.032-3.552 5.616-1.536 1.584-3.384 2.824-5.544 3.72-2.16.88-4.56 1.32-7.2 1.32-2.624 0-5.016-.44-7.176-1.32-2.16-.896-4.016-2.136-5.568-3.72-1.536-1.584-2.728-3.456-3.576-5.616-.848-2.176-1.272-4.536-1.272-7.08 0-2.544.424-4.896 1.272-7.056.848-2.176 2.04-4.056 3.576-5.64 1.552-1.584 3.408-2.816 5.568-3.696 2.16-.896 4.552-1.344 7.176-1.344 1.76 0 3.416.208 4.968.624 1.552.4 2.976.976 4.272 1.728a15.093 15.093 0 013.48 2.712 16.018 16.018 0 012.64 3.552 17.128 17.128 0 011.632 4.272c.384 1.536.576 3.152.576 4.848zm-6.6 0c0-1.904-.256-3.608-.768-5.112-.512-1.52-1.24-2.808-2.184-3.864a9.33 9.33 0 00-3.456-2.424c-1.344-.56-2.864-.84-4.56-.84-1.696 0-3.224.28-4.584.84a9.597 9.597 0 00-3.456 2.424c-.944 1.056-1.672 2.344-2.184 3.864-.512 1.504-.768 3.208-.768 5.112s.256 3.616.768 5.136c.512 1.504 1.24 2.784 2.184 3.84a9.737 9.737 0 003.456 2.4c1.36.56 2.888.84 4.584.84 1.696 0 3.216-.28 4.56-.84 1.36-.56 2.512-1.36 3.456-2.4.944-1.056 1.672-2.336 2.184-3.84.512-1.52.768-3.232.768-5.136zm36.102 9.168c.352 0 .664.136.936.408l2.544 2.76a13.949 13.949 0 01-5.208 4.008c-2.048.928-4.512 1.392-7.392 1.392-2.576 0-4.896-.44-6.96-1.32-2.048-.88-3.8-2.104-5.256-3.672-1.456-1.568-2.576-3.44-3.36-5.616-.768-2.176-1.152-4.552-1.152-7.128 0-2.608.416-4.992 1.248-7.152.832-2.176 2-4.048 3.504-5.616 1.52-1.568 3.328-2.784 5.424-3.648 2.096-.88 4.416-1.32 6.96-1.32 2.528 0 4.768.416 6.72 1.248 1.968.832 3.64 1.92 5.016 3.264l-2.16 3c-.128.192-.296.36-.504.504-.192.144-.464.216-.816.216a1.66 1.66 0 01-.744-.192 19.382 19.382 0 01-.84-.504 21.21 21.21 0 00-1.056-.672c-.4-.24-.864-.456-1.392-.648a9.894 9.894 0 00-1.848-.504c-.688-.144-1.488-.216-2.4-.216-1.552 0-2.976.28-4.272.84a9.094 9.094 0 00-3.312 2.4c-.928 1.04-1.648 2.32-2.16 3.84-.512 1.504-.768 3.224-.768 5.16 0 1.952.272 3.688.816 5.208.56 1.52 1.312 2.8 2.256 3.84a9.719 9.719 0 003.336 2.4c1.28.544 2.656.816 4.128.816.88 0 1.672-.048 2.376-.144a9.87 9.87 0 001.968-.456 8.724 8.724 0 001.704-.792c.544-.336 1.08-.744 1.608-1.224.16-.144.328-.256.504-.336.176-.096.36-.144.552-.144zM234.682 14.6h-10.464V44h-6.456V14.6h-10.464V9.296h27.384V14.6zm15.821 12.144c1.184 0 2.216-.144 3.096-.432.88-.304 1.608-.728 2.184-1.272a5.204 5.204 0 001.32-2.016c.288-.8.432-1.688.432-2.664 0-.928-.144-1.768-.432-2.52a4.981 4.981 0 00-1.296-1.92c-.576-.528-1.304-.928-2.184-1.2-.88-.288-1.92-.432-3.12-.432h-4.824v12.456h4.824zm0-17.448c2.32 0 4.328.272 6.024.816 1.696.544 3.096 1.304 4.2 2.28a8.93 8.93 0 012.448 3.504c.544 1.36.816 2.848.816 4.464 0 1.68-.28 3.224-.84 4.632a9.607 9.607 0 01-2.52 3.6c-1.12 1.008-2.528 1.792-4.224 2.352-1.68.56-3.648.84-5.904.84h-4.824V44h-6.456V9.296h11.28zm51.535 17.352c0 2.544-.424 4.904-1.272 7.08-.832 2.16-2.016 4.032-3.552 5.616-1.536 1.584-3.384 2.824-5.544 3.72-2.16.88-4.56 1.32-7.2 1.32-2.624 0-5.016-.44-7.176-1.32-2.16-.896-4.016-2.136-5.568-3.72-1.536-1.584-2.728-3.456-3.576-5.616-.848-2.176-1.272-4.536-1.272-7.08 0-2.544.424-4.896 1.272-7.056.848-2.176 2.04-4.056 3.576-5.64 1.552-1.584 3.408-2.816 5.568-3.696 2.16-.896 4.552-1.344 7.176-1.344 1.76 0 3.416.208 4.968.624 1.552.4 2.976.976 4.272 1.728a15.093 15.093 0 013.48 2.712 16.018 16.018 0 012.64 3.552 17.128 17.128 0 011.632 4.272c.384 1.536.576 3.152.576 4.848zm-6.6 0c0-1.904-.256-3.608-.768-5.112-.512-1.52-1.24-2.808-2.184-3.864a9.33 9.33 0 00-3.456-2.424c-1.344-.56-2.864-.84-4.56-.84-1.696 0-3.224.28-4.584.84a9.597 9.597 0 00-3.456 2.424c-.944 1.056-1.672 2.344-2.184 3.864-.512 1.504-.768 3.208-.768 5.112s.256 3.616.768 5.136c.512 1.504 1.24 2.784 2.184 3.84a9.737 9.737 0 003.456 2.4c1.36.56 2.888.84 4.584.84 1.696 0 3.216-.28 4.56-.84 1.36-.56 2.512-1.36 3.456-2.4.944-1.056 1.672-2.336 2.184-3.84.512-1.52.768-3.232.768-5.136zm41.526-17.352V44h-6.48V22.256c0-.816.016-1.672.048-2.568.048-.896.144-1.848.288-2.856-.32.896-.672 1.728-1.056 2.496a24.455 24.455 0 01-1.08 1.992l-13.272 20.688c-.144.24-.32.48-.528.72-.192.24-.408.456-.648.648-.24.176-.504.328-.792.456a2.43 2.43 0 01-.888.168h-4.848V9.296h6.48V31.04c0 .816-.024 1.68-.072 2.592-.032.896-.12 1.848-.264 2.856a26.07 26.07 0 011.032-2.496c.384-.768.76-1.44 1.128-2.016l13.248-20.688c.144-.24.312-.48.504-.72.208-.24.432-.448.672-.624a3.14 3.14 0 01.768-.456 2.22 2.22 0 01.912-.192h4.848zM322.636 4.28c.592 0 1.088-.056 1.488-.168.4-.112.72-.304.96-.576.24-.288.408-.672.504-1.152.096-.48.144-1.088.144-1.824h3.504c.416 0 .72.176.912.528.208.352.312.736.312 1.152 0 .816-.184 1.536-.552 2.16-.368.624-.896 1.144-1.584 1.56-.688.416-1.512.736-2.472.96-.96.208-2.032.312-3.216.312-1.184 0-2.256-.104-3.216-.312-.96-.224-1.784-.544-2.472-.96-.688-.416-1.216-.936-1.584-1.56-.368-.624-.552-1.344-.552-2.16 0-.416.096-.8.288-1.152.208-.352.52-.528.936-.528h3.504c0 .736.048 1.344.144 1.824.096.48.264.864.504 1.152.24.272.552.464.936.576.4.112.904.168 1.512.168z" fill="#000"/></svg>