<svg width="337" height="53" viewBox="0 0 337 53" fill="none" xmlns="http://www.w3.org/2000/svg">
<path d="M25.8 39.032V14.264H16.32C16.128 17.672 15.864 20.696 15.528 23.336C15.208 25.976 14.832 28.296 14.4 30.296C13.968 32.296 13.488 34.008 12.96 35.432C12.432 36.856 11.864 38.056 11.256 39.032H25.8ZM37.68 39.032V50.408C37.68 50.968 37.488 51.416 37.104 51.752C36.736 52.088 36.248 52.256 35.64 52.256H31.752V44H6.264V50.408C6.264 50.968 6.072 51.416 5.688 51.752C5.32 52.088 4.832 52.256 4.224 52.256H0.336V39.032H4.128C4.576 38.792 5.016 38.408 5.448 37.88C5.896 37.352 6.328 36.608 6.744 35.648C7.16 34.688 7.552 33.472 7.92 32C8.304 30.528 8.648 28.736 8.952 26.624C9.256 24.496 9.512 22.008 9.72 19.16C9.944 16.312 10.112 13.024 10.224 9.296H32.28V39.032H37.68ZM74.7881 26.648C74.7881 29.192 74.3641 31.552 73.5161 33.728C72.6841 35.888 71.5001 37.76 69.9641 39.344C68.4281 40.928 66.5801 42.168 64.4201 43.064C62.2601 43.944 59.8601 44.384 57.2201 44.384C54.5961 44.384 52.2041 43.944 50.0441 43.064C47.8841 42.168 46.0281 40.928 44.4761 39.344C42.9401 37.76 41.7481 35.888 40.9001 33.728C40.0521 31.552 39.6281 29.192 39.6281 26.648C39.6281 24.104 40.0521 21.752 40.9001 19.592C41.7481 17.416 42.9401 15.536 44.4761 13.952C46.0281 12.368 47.8841 11.136 50.0441 10.256C52.2041 9.36 54.5961 8.912 57.2201 8.912C58.9801 8.912 60.6361 9.12 62.1881 9.536C63.7401 9.936 65.1641 10.512 66.4601 11.264C67.7561 12 68.9161 12.904 69.9401 13.976C70.9801 15.032 71.8601 16.216 72.5801 17.528C73.3001 18.84 73.8441 20.264 74.2121 21.8C74.5961 23.336 74.7881 24.952 74.7881 26.648ZM68.1881 26.648C68.1881 24.744 67.9321 23.04 67.4201 21.536C66.9081 20.016 66.1801 18.728 65.2361 17.672C64.2921 16.616 63.1401 15.808 61.7801 15.248C60.4361 14.688 58.9161 14.408 57.2201 14.408C55.5241 14.408 53.9961 14.688 52.6361 15.248C51.2921 15.808 50.1401 16.616 49.1801 17.672C48.2361 18.728 47.5081 20.016 46.9961 21.536C46.4841 23.04 46.2281 24.744 46.2281 26.648C46.2281 28.552 46.4841 30.264 46.9961 31.784C47.5081 33.288 48.2361 34.568 49.1801 35.624C50.1401 36.664 51.2921 37.464 52.6361 38.024C53.9961 38.584 55.5241 38.864 57.2201 38.864C58.9161 38.864 60.4361 38.584 61.7801 38.024C63.1401 37.464 64.2921 36.664 65.2361 35.624C66.1801 34.568 66.9081 33.288 67.4201 31.784C67.9321 30.264 68.1881 28.552 68.1881 26.648ZM107.598 44H101.094V14.264H91.614C91.39 18.616 91.07 22.384 90.654 25.568C90.254 28.736 89.766 31.44 89.19 33.68C88.63 35.904 87.982 37.712 87.246 39.104C86.526 40.496 85.734 41.584 84.87 42.368C84.006 43.136 83.078 43.664 82.086 43.952C81.094 44.224 80.054 44.36 78.966 44.36C77.814 44.36 76.974 44.256 76.446 44.048C75.918 43.84 75.654 43.536 75.654 43.136V39.104H77.502C77.918 39.104 78.334 39.056 78.75 38.96C79.182 38.864 79.606 38.664 80.022 38.36C80.454 38.04 80.87 37.584 81.27 36.992C81.686 36.4 82.078 35.608 82.446 34.616C82.83 33.608 83.182 32.376 83.502 30.92C83.838 29.464 84.134 27.712 84.39 25.664C84.662 23.616 84.894 21.248 85.086 18.56C85.294 15.856 85.446 12.768 85.542 9.296H107.598V44ZM136.741 14.264H121.813V44H115.333V9.296H136.741V14.264ZM173.038 26.648C173.038 29.192 172.614 31.552 171.766 33.728C170.934 35.888 169.75 37.76 168.214 39.344C166.678 40.928 164.83 42.168 162.67 43.064C160.51 43.944 158.11 44.384 155.47 44.384C152.846 44.384 150.454 43.944 148.294 43.064C146.134 42.168 144.278 40.928 142.726 39.344C141.19 37.76 139.998 35.888 139.15 33.728C138.302 31.552 137.878 29.192 137.878 26.648C137.878 24.104 138.302 21.752 139.15 19.592C139.998 17.416 141.19 15.536 142.726 13.952C144.278 12.368 146.134 11.136 148.294 10.256C150.454 9.36 152.846 8.912 155.47 8.912C157.23 8.912 158.886 9.12 160.438 9.536C161.99 9.936 163.414 10.512 164.71 11.264C166.006 12 167.166 12.904 168.19 13.976C169.23 15.032 170.11 16.216 170.83 17.528C171.55 18.84 172.094 20.264 172.462 21.8C172.846 23.336 173.038 24.952 173.038 26.648ZM166.438 26.648C166.438 24.744 166.182 23.04 165.67 21.536C165.158 20.016 164.43 18.728 163.486 17.672C162.542 16.616 161.39 15.808 160.03 15.248C158.686 14.688 157.166 14.408 155.47 14.408C153.774 14.408 152.246 14.688 150.886 15.248C149.542 15.808 148.39 16.616 147.43 17.672C146.486 18.728 145.758 20.016 145.246 21.536C144.734 23.04 144.478 24.744 144.478 26.648C144.478 28.552 144.734 30.264 145.246 31.784C145.758 33.288 146.486 34.568 147.43 35.624C148.39 36.664 149.542 37.464 150.886 38.024C152.246 38.584 153.774 38.864 155.47 38.864C157.166 38.864 158.686 38.584 160.03 38.024C161.39 37.464 162.542 36.664 163.486 35.624C164.43 34.568 165.158 33.288 165.67 31.784C166.182 30.264 166.438 28.552 166.438 26.648ZM202.54 35.816C202.892 35.816 203.204 35.952 203.476 36.224L206.02 38.984C204.612 40.728 202.876 42.064 200.812 42.992C198.764 43.92 196.3 44.384 193.42 44.384C190.844 44.384 188.524 43.944 186.46 43.064C184.412 42.184 182.66 40.96 181.204 39.392C179.748 37.824 178.628 35.952 177.844 33.776C177.076 31.6 176.692 29.224 176.692 26.648C176.692 24.04 177.108 21.656 177.94 19.496C178.772 17.32 179.94 15.448 181.444 13.88C182.964 12.312 184.772 11.096 186.868 10.232C188.964 9.352 191.284 8.912 193.828 8.912C196.356 8.912 198.596 9.328 200.548 10.16C202.516 10.992 204.188 12.08 205.564 13.424L203.404 16.424C203.276 16.616 203.108 16.784 202.9 16.928C202.708 17.072 202.436 17.144 202.084 17.144C201.844 17.144 201.596 17.08 201.34 16.952C201.084 16.808 200.804 16.64 200.5 16.448C200.196 16.24 199.844 16.016 199.444 15.776C199.044 15.536 198.58 15.32 198.052 15.128C197.524 14.92 196.908 14.752 196.204 14.624C195.516 14.48 194.716 14.408 193.804 14.408C192.252 14.408 190.828 14.688 189.532 15.248C188.252 15.792 187.148 16.592 186.22 17.648C185.292 18.688 184.572 19.968 184.06 21.488C183.548 22.992 183.292 24.712 183.292 26.648C183.292 28.6 183.564 30.336 184.108 31.856C184.668 33.376 185.42 34.656 186.364 35.696C187.308 36.736 188.42 37.536 189.7 38.096C190.98 38.64 192.356 38.912 193.828 38.912C194.708 38.912 195.5 38.864 196.204 38.768C196.924 38.672 197.58 38.52 198.172 38.312C198.78 38.104 199.348 37.84 199.876 37.52C200.42 37.184 200.956 36.776 201.484 36.296C201.644 36.152 201.812 36.04 201.988 35.96C202.164 35.864 202.348 35.816 202.54 35.816ZM234.682 14.6H224.218V44H217.762V14.6H207.298V9.296H234.682V14.6ZM250.503 26.744C251.687 26.744 252.719 26.6 253.599 26.312C254.479 26.008 255.207 25.584 255.783 25.04C256.375 24.48 256.815 23.808 257.103 23.024C257.391 22.224 257.535 21.336 257.535 20.36C257.535 19.432 257.391 18.592 257.103 17.84C256.815 17.088 256.383 16.448 255.807 15.92C255.231 15.392 254.503 14.992 253.623 14.72C252.743 14.432 251.703 14.288 250.503 14.288H245.679V26.744H250.503ZM250.503 9.296C252.823 9.296 254.831 9.568 256.527 10.112C258.223 10.656 259.623 11.416 260.727 12.392C261.831 13.368 262.647 14.536 263.175 15.896C263.719 17.256 263.991 18.744 263.991 20.36C263.991 22.04 263.711 23.584 263.151 24.992C262.591 26.384 261.751 27.584 260.631 28.592C259.511 29.6 258.103 30.384 256.407 30.944C254.727 31.504 252.759 31.784 250.503 31.784H245.679V44H239.223V9.296H250.503ZM302.038 26.648C302.038 29.192 301.614 31.552 300.766 33.728C299.934 35.888 298.75 37.76 297.214 39.344C295.678 40.928 293.83 42.168 291.67 43.064C289.51 43.944 287.11 44.384 284.47 44.384C281.846 44.384 279.454 43.944 277.294 43.064C275.134 42.168 273.278 40.928 271.726 39.344C270.19 37.76 268.998 35.888 268.15 33.728C267.302 31.552 266.878 29.192 266.878 26.648C266.878 24.104 267.302 21.752 268.15 19.592C268.998 17.416 270.19 15.536 271.726 13.952C273.278 12.368 275.134 11.136 277.294 10.256C279.454 9.36 281.846 8.912 284.47 8.912C286.23 8.912 287.886 9.12 289.438 9.536C290.99 9.936 292.414 10.512 293.71 11.264C295.006 12 296.166 12.904 297.19 13.976C298.23 15.032 299.11 16.216 299.83 17.528C300.55 18.84 301.094 20.264 301.462 21.8C301.846 23.336 302.038 24.952 302.038 26.648ZM295.438 26.648C295.438 24.744 295.182 23.04 294.67 21.536C294.158 20.016 293.43 18.728 292.486 17.672C291.542 16.616 290.39 15.808 289.03 15.248C287.686 14.688 286.166 14.408 284.47 14.408C282.774 14.408 281.246 14.688 279.886 15.248C278.542 15.808 277.39 16.616 276.43 17.672C275.486 18.728 274.758 20.016 274.246 21.536C273.734 23.04 273.478 24.744 273.478 26.648C273.478 28.552 273.734 30.264 274.246 31.784C274.758 33.288 275.486 34.568 276.43 35.624C277.39 36.664 278.542 37.464 279.886 38.024C281.246 38.584 282.774 38.864 284.47 38.864C286.166 38.864 287.686 38.584 289.03 38.024C290.39 37.464 291.542 36.664 292.486 35.624C293.43 34.568 294.158 33.288 294.67 31.784C295.182 30.264 295.438 28.552 295.438 26.648ZM336.964 9.296V44H330.484V22.256C330.484 21.44 330.5 20.584 330.532 19.688C330.58 18.792 330.676 17.84 330.82 16.832C330.5 17.728 330.148 18.56 329.764 19.328C329.396 20.08 329.036 20.744 328.684 21.32L315.412 42.008C315.268 42.248 315.092 42.488 314.884 42.728C314.692 42.968 314.476 43.184 314.236 43.376C313.996 43.552 313.732 43.704 313.444 43.832C313.156 43.944 312.86 44 312.556 44H307.708V9.296H314.188V31.04C314.188 31.856 314.164 32.72 314.116 33.632C314.084 34.528 313.996 35.48 313.852 36.488C314.172 35.592 314.516 34.76 314.884 33.992C315.268 33.224 315.644 32.552 316.012 31.976L329.26 11.288C329.404 11.048 329.572 10.808 329.764 10.568C329.972 10.328 330.196 10.12 330.436 9.944C330.676 9.752 330.932 9.6 331.204 9.488C331.492 9.36 331.796 9.296 332.116 9.296H336.964ZM322.636 4.28C323.228 4.28 323.724 4.224 324.124 4.112C324.524 4 324.844 3.808 325.084 3.536C325.324 3.248 325.492 2.864 325.588 2.384C325.684 1.904 325.732 1.296 325.732 0.559999H329.236C329.652 0.559999 329.956 0.735998 330.148 1.088C330.356 1.44 330.46 1.824 330.46 2.24C330.46 3.056 330.276 3.776 329.908 4.4C329.54 5.024 329.012 5.544 328.324 5.96C327.636 6.376 326.812 6.696 325.852 6.92C324.892 7.128 323.82 7.232 322.636 7.232C321.452 7.232 320.38 7.128 319.42 6.92C318.46 6.696 317.636 6.376 316.948 5.96C316.26 5.544 315.732 5.024 315.364 4.4C314.996 3.776 314.812 3.056 314.812 2.24C314.812 1.824 314.908 1.44 315.1 1.088C315.308 0.735998 315.62 0.559999 316.036 0.559999H319.54C319.54 1.296 319.588 1.904 319.684 2.384C319.78 2.864 319.948 3.248 320.188 3.536C320.428 3.808 320.74 4 321.124 4.112C321.524 4.224 322.028 4.28 322.636 4.28Z" fill="black"/>
</svg>
